# xmcd
#
# Track frame offsets:
#	150
#	17480
#	35397
#	50662
#	70085
#	86660
#	104525
#	123105
#	147695
#	165602
#	187017
#	208105
#	225242
#	240247
#	266212
#	281320
#	301760
#	320150
#
# Disc length: 4524 seconds
#
# Revision: 3
# Processed by: cddbd v1.4PL0 Copyright (c) Steve Scherf et al.
# Submitted via: audiograbber 1.81.00
#
DISCID=fa11aa12
DTITLE=Various Artist - CoolSweat 6
DYEAR=2001
DGENRE=R&B
TTITLE0=Mya - Case Of The Ex 
TTITLE1=De La Soul Ft Chaka Khan - All Good 
TTITLE2=Craig David - Walking Away
TTITLE3=D'angelo - Untiteld (How Does It Feel)
TTITLE4=Da Brat Ft Tyrese - What'chu Like
TTITLE5=Jennifer Lopez - Let's Get Loud 
TTITLE6=Kelis - Caught Out There 
TTITLE7=R.kelly - I Wish
TTITLE8=Ruff Endz - No More 
TTITLE9=All Saints - Black Coffee
TTITLE10=Angie Stone - No More Rain (On This Cloud) 
TTITLE11=Will Smith - Freakin'it
TTITLE12=Anastacia - Not That Kind
TTITLE13=Erykah Badu - Bag Lady 
TTITLE14=Lil Bow Wow - Bow Wow (That's My Name)
TTITLE15=Sisqo - Incomplete
TTITLE16=Wyclef Ft Mary J. Blige - 911
TTITLE17=Mystikal - Shake Ya Ass 
EXTD=
EXTT0=
EXTT1=
EXTT2=
EXTT3=
EXTT4=
EXTT5=
EXTT6=
EXTT7=
EXTT8=
EXTT9=
EXTT10=
EXTT11=
EXTT12=
EXTT13=
EXTT14=
EXTT15=
EXTT16=
EXTT17=
PLAYORDER=
